<svg width="32" height="32" viewBox="0 0 32 32" fill="none" xmlns="http://www.w3.org/2000/svg">
<path d="M8.29958 6.41457C8.04811 6.17169 7.7113 6.0373 7.36171 6.04033C7.01211 6.04337 6.6777 6.1836 6.43049 6.43081C6.18327 6.67802 6.04305 7.01244 6.04001 7.36203C6.03697 7.71163 6.17137 8.04843 6.41424 8.2999L14.1142 15.9999L6.41291 23.6999C6.28556 23.8229 6.18399 23.97 6.11411 24.1327C6.04423 24.2954 6.00745 24.4703 6.00591 24.6474C6.00437 24.8244 6.03811 25 6.10515 25.1638C6.17219 25.3277 6.27119 25.4766 6.39638 25.6018C6.52157 25.727 6.67044 25.826 6.8343 25.893C6.99817 25.96 7.17374 25.9938 7.35078 25.9922C7.52782 25.9907 7.70278 25.9539 7.86545 25.884C8.02812 25.8142 8.17525 25.7126 8.29824 25.5852L15.9996 17.8852L23.6996 25.5852C23.951 25.8281 24.2878 25.9625 24.6374 25.9595C24.987 25.9564 25.3215 25.8162 25.5687 25.569C25.8159 25.3218 25.9561 24.9874 25.9591 24.6378C25.9622 24.2882 25.8278 23.9514 25.5849 23.6999L17.8849 15.9999L25.5849 8.2999C25.8278 8.04843 25.9622 7.71163 25.9591 7.36203C25.9561 7.01244 25.8159 6.67802 25.5687 6.43081C25.3215 6.1836 24.987 6.04337 24.6374 6.04033C24.2878 6.0373 23.951 6.17169 23.6996 6.41457L15.9996 14.1146L8.29958 6.41323V6.41457Z" fill="black"/>
</svg>
