<svg width="16" height="19" viewBox="0 0 16 19" fill="none" xmlns="http://www.w3.org/2000/svg">
<path d="M7.98565 0C10.8739 0 13.1978 2.29405 13.1978 5.1262C13.1978 5.99323 13.7972 6.72327 14.4807 7.25669C15.4053 7.97823 16 9.08862 16 10.344V15.034C16 17.2242 14.2011 19 11.9833 19H4.01769C1.79892 19 0 17.2242 0 15.034V10.344C0 9.08875 0.595057 7.97847 1.51942 7.25692C2.2029 6.7234 2.80215 5.99326 2.80215 5.1262C2.81172 2.29405 5.13568 0 7.98565 0ZM7.99522 10.8151C7.53616 10.8151 7.16318 11.1832 7.16318 11.6364V13.7322C7.16318 14.1948 7.53616 14.563 7.99522 14.563C8.46384 14.563 8.83682 14.1948 8.83682 13.7322V11.6364C8.83682 11.1832 8.46384 10.8151 7.99522 10.8151ZM8.00478 1.65209C6.06336 1.65209 4.48536 3.20034 4.47579 5.10732C4.47579 5.80911 5.0447 6.37802 5.74649 6.37802H10.2724C10.9638 6.37802 11.5242 5.81756 11.5242 5.1262C11.5242 3.20978 9.9462 1.65209 8.00478 1.65209Z" fill="#252A34"/>
</svg>
