<svg width="50" height="50" viewBox="0 0 50 50" fill="none" xmlns="http://www.w3.org/2000/svg">
<path d="M25 0C28.3152 0 31.4946 1.31696 33.8388 3.66116C36.183 6.00537 37.5 9.18479 37.5 12.5C37.5 15.8152 36.183 18.9946 33.8388 21.3388C31.4946 23.683 28.3152 25 25 25C21.6848 25 18.5054 23.683 16.1612 21.3388C13.817 18.9946 12.5 15.8152 12.5 12.5C12.5 9.18479 13.817 6.00537 16.1612 3.66116C18.5054 1.31696 21.6848 0 25 0ZM25 50C25 50 50 50 50 43.75C50 36.25 37.8125 28.125 25 28.125C12.1875 28.125 0 36.25 0 43.75C0 50 25 50 25 50Z" fill="#1479BD"/>
</svg>
