<svg width="50" height="50" viewBox="0 0 50 50" fill="none" xmlns="http://www.w3.org/2000/svg">
<path d="M42.96 10.9375H40.6338C40.6315 10.9375 40.6292 10.9384 40.6276 10.9401C40.6259 10.9417 40.625 10.944 40.625 10.9463V40.625C40.625 41.4538 40.9542 42.2487 41.5403 42.8347C42.1263 43.4208 42.9212 43.75 43.75 43.75C44.5788 43.75 45.3737 43.4208 45.9597 42.8347C46.5458 42.2487 46.875 41.4538 46.875 40.625V14.8525C46.875 13.8142 46.4625 12.8184 45.7283 12.0842C44.9941 11.35 43.9983 10.9375 42.96 10.9375Z" fill="#1FB15E"/>
<path d="M37.5 40.625V7.03125C37.5 6.51827 37.399 6.01032 37.2027 5.53639C37.0063 5.06246 36.7186 4.63184 36.3559 4.26911C35.9932 3.90639 35.5625 3.61865 35.0886 3.42235C34.6147 3.22604 34.1067 3.125 33.5938 3.125H7.03125C5.99525 3.125 5.00168 3.53655 4.26911 4.26911C3.53655 5.00168 3.125 5.99525 3.125 7.03125V41.4062C3.125 42.8567 3.70117 44.2477 4.72676 45.2732C5.75235 46.2988 7.14335 46.875 8.59375 46.875H42.0752C42.09 46.8751 42.1046 46.8723 42.1183 46.8667C42.132 46.8611 42.1444 46.8529 42.1549 46.8424C42.1654 46.8319 42.1736 46.8195 42.1792 46.8058C42.1848 46.7921 42.1876 46.7775 42.1875 46.7627C42.1874 46.7381 42.1793 46.7143 42.1643 46.6949C42.1493 46.6754 42.1282 46.6615 42.1045 46.6553C40.7827 46.2927 39.6165 45.5064 38.7847 44.4171C37.953 43.3278 37.5016 41.9956 37.5 40.625ZM9.375 12.5C9.375 12.0856 9.53962 11.6882 9.83265 11.3951C10.1257 11.1021 10.5231 10.9375 10.9375 10.9375H17.1875C17.6019 10.9375 17.9993 11.1021 18.2924 11.3951C18.5854 11.6882 18.75 12.0856 18.75 12.5V18.75C18.75 19.1644 18.5854 19.5618 18.2924 19.8549C17.9993 20.1479 17.6019 20.3125 17.1875 20.3125H10.9375C10.5231 20.3125 10.1257 20.1479 9.83265 19.8549C9.53962 19.5618 9.375 19.1644 9.375 18.75V12.5ZM29.6875 39.0625H10.9814C10.1406 39.0625 9.41894 38.416 9.37695 37.5752C9.36677 37.3639 9.39959 37.1528 9.47342 36.9546C9.54725 36.7564 9.66056 36.5752 9.80647 36.4221C9.95238 36.269 10.1279 36.1471 10.3223 36.0638C10.5167 35.9805 10.726 35.9375 10.9375 35.9375H29.6436C30.4844 35.9375 31.2061 36.584 31.248 37.4248C31.2582 37.6361 31.2254 37.8472 31.1516 38.0454C31.0777 38.2436 30.9644 38.4248 30.8185 38.5779C30.6726 38.731 30.4971 38.8529 30.3027 38.9362C30.1083 39.0195 29.899 39.0625 29.6875 39.0625ZM29.6875 32.8125H10.9814C10.1406 32.8125 9.41894 32.166 9.37695 31.3252C9.36677 31.1139 9.39959 30.9028 9.47342 30.7046C9.54725 30.5064 9.66056 30.3252 9.80647 30.1721C9.95238 30.019 10.1279 29.8971 10.3223 29.8138C10.5167 29.7305 10.726 29.6875 10.9375 29.6875H29.6436C30.4844 29.6875 31.2061 30.334 31.248 31.1748C31.2582 31.3861 31.2254 31.5972 31.1516 31.7954C31.0777 31.9936 30.9644 32.1748 30.8185 32.3279C30.6726 32.481 30.4971 32.6029 30.3027 32.6862C30.1083 32.7695 29.899 32.8125 29.6875 32.8125ZM29.6875 26.5625H10.9814C10.1406 26.5625 9.41894 25.916 9.37695 25.0752C9.36677 24.8639 9.39959 24.6528 9.47342 24.4546C9.54725 24.2564 9.66056 24.0752 9.80647 23.9221C9.95238 23.769 10.1279 23.6471 10.3223 23.5638C10.5167 23.4805 10.726 23.4375 10.9375 23.4375H29.6436C30.4844 23.4375 31.2061 24.084 31.248 24.9248C31.2582 25.1361 31.2254 25.3472 31.1516 25.5454C31.0777 25.7436 30.9644 25.9248 30.8185 26.0779C30.6726 26.231 30.4971 26.3529 30.3027 26.4362C30.1083 26.5195 29.899 26.5625 29.6875 26.5625ZM29.6875 20.3125H23.4814C22.6406 20.3125 21.9189 19.666 21.877 18.8252C21.8668 18.6139 21.8996 18.4028 21.9734 18.2046C22.0473 18.0064 22.1606 17.8252 22.3065 17.6721C22.4524 17.519 22.6279 17.3971 22.8223 17.3138C23.0167 17.2305 23.226 17.1875 23.4375 17.1875H29.6436C30.4844 17.1875 31.2061 17.834 31.248 18.6748C31.2582 18.8861 31.2254 19.0972 31.1516 19.2954C31.0777 19.4936 30.9644 19.6748 30.8185 19.8279C30.6726 19.981 30.4971 20.1029 30.3027 20.1862C30.1083 20.2695 29.899 20.3125 29.6875 20.3125ZM29.6875 14.0625H23.4814C22.6406 14.0625 21.9189 13.416 21.877 12.5752C21.8668 12.3639 21.8996 12.1528 21.9734 11.9546C22.0473 11.7564 22.1606 11.5752 22.3065 11.4221C22.4524 11.269 22.6279 11.1471 22.8223 11.0638C23.0167 10.9805 23.226 10.9375 23.4375 10.9375H29.6436C30.4844 10.9375 31.2061 11.584 31.248 12.4248C31.2582 12.6361 31.2254 12.8472 31.1516 13.0454C31.0777 13.2436 30.9644 13.4248 30.8185 13.5779C30.6726 13.731 30.4971 13.8529 30.3027 13.9362C30.1083 14.0195 29.899 14.0625 29.6875 14.0625Z" fill="#1FB15E"/>
</svg>
