<svg width="24" height="24" viewBox="0 0 24 24" fill="none" xmlns="http://www.w3.org/2000/svg">
<path d="M16.746 9.94538V6.684C16.745 6.61949 16.7281 6.55623 16.6967 6.49988C16.6653 6.44353 16.6204 6.39586 16.566 6.36112L20.25 0.75H13.1865L12 2.53013L10.8135 0.75H3.75L7.43325 6.36038C7.37888 6.39511 7.33398 6.44278 7.30257 6.49913C7.27115 6.55548 7.25421 6.61874 7.25325 6.68325V9.94462C5.57287 11.3205 4.5 13.4096 4.5 15.7504C4.5 19.8923 7.85812 23.25 12 23.25C12.2557 23.25 12.5078 23.2369 12.7568 23.2118C16.5431 22.833 19.5 19.6372 19.5 15.7504C19.5 13.4096 18.4264 11.3205 16.746 9.94538ZM15.3097 1.125H17.6827L14.373 6.09L13.1865 4.31025L15.3097 1.125ZM15.5595 7.87012L15.9244 7.323C15.9443 7.36987 15.9551 7.4205 15.9551 7.4745V9.05662C15.9549 9.10552 15.9449 9.15387 15.9257 9.19887C15.9066 9.24387 15.8788 9.28462 15.8438 9.31875C14.7188 8.64488 13.407 8.25 12 8.25C10.6451 8.25017 9.31586 8.61994 8.1555 9.3195C8.08524 9.24994 8.04522 9.15549 8.04413 9.05662V7.4745C8.04413 7.42012 8.05575 7.36912 8.07488 7.323L8.43975 7.87012H15.5595ZM6.31725 1.125H8.69025L12.9368 7.49512H10.5638L6.31725 1.125ZM12 22.1254C8.47913 22.1254 5.625 19.2712 5.625 15.7504C5.625 12.2295 8.47913 9.37537 12 9.37537C15.5201 9.37537 18.375 12.2295 18.375 15.7504C18.375 19.2712 15.5201 22.1254 12 22.1254Z" fill="black"/>
<path d="M12.0887 9.95508C8.83896 9.95508 6.20459 12.594 6.20459 15.849C6.20459 16.8202 6.44346 17.7333 6.85859 18.5415C6.64268 17.8837 6.53244 17.1959 6.53196 16.5037C6.53196 13.0526 9.19784 10.2318 12.5796 9.9802C12.4164 9.96498 12.2526 9.9566 12.0887 9.95508ZM14.4501 20.6771C13.8759 21.0627 13.2447 21.3557 12.5796 21.5456C13.5084 21.432 14.3972 21.1007 15.1738 20.5788C17.875 18.7631 18.6081 15.1413 16.8122 12.4878C16.7201 12.3552 16.6229 12.2263 16.5208 12.1012C18.1802 15.0022 17.3132 18.7522 14.4501 20.6771Z" fill="black"/>
<path d="M14.5781 17.3132C14.5781 16.8239 14.445 16.4072 14.1788 16.0619C13.9121 15.7165 13.5566 15.4941 13.1119 15.3951C13.8563 14.9725 14.229 14.4066 14.229 13.6979C14.229 13.198 14.0471 12.7506 13.6838 12.3535C13.2428 11.8679 12.6566 11.626 11.9261 11.626C11.499 11.626 11.1135 11.7096 10.7696 11.8769C10.425 12.0437 10.1569 12.2736 9.96487 12.5657C9.7725 12.8575 9.62888 13.2479 9.53363 13.7369L10.9042 13.9791C10.9432 13.6262 11.0528 13.3585 11.2328 13.1744C11.3162 13.0858 11.4172 13.0157 11.5293 12.9683C11.6414 12.9209 11.7621 12.8973 11.8838 12.8991C12.1414 12.8991 12.348 12.9801 12.5032 13.1417C12.6585 13.303 12.7361 13.5197 12.7361 13.7916C12.7361 14.1115 12.63 14.3676 12.4181 14.5604C12.2066 14.7535 11.8991 14.8446 11.4968 14.8337L11.3325 16.0956C11.5972 16.0184 11.8249 15.9797 12.0157 15.9797C12.3049 15.9797 12.5501 16.0934 12.7515 16.3214C12.9529 16.5486 13.0538 16.8576 13.0538 17.2469C13.0538 17.659 12.9488 17.9856 12.7384 18.2282C12.528 18.4705 12.2696 18.592 11.9629 18.592C11.6767 18.592 11.4334 18.4904 11.2324 18.2886C11.0314 18.0869 10.908 17.7944 10.8619 17.4119L9.42188 17.5941C9.49612 18.2736 9.76425 18.8234 10.2266 19.2445C10.689 19.6649 11.2714 19.8756 11.9738 19.8756C12.7148 19.8756 13.3339 19.6255 13.8319 19.126C14.3295 18.6265 14.5781 18.0224 14.5781 17.3132Z" fill="black"/>
</svg>
