<svg width="20" height="20" viewBox="0 0 20 20" fill="none" xmlns="http://www.w3.org/2000/svg">
<path d="M14 5.5C14 4.83696 13.7366 4.20107 13.2678 3.73223C12.7989 3.26339 12.163 3 11.5 3H5.5C4.83696 3 4.20107 3.26339 3.73223 3.73223C3.26339 4.20107 3 4.83696 3 5.5V8.6C3.9535 8.11291 5.02844 7.91472 6.09296 8.02974C7.15747 8.14477 8.16526 8.56801 8.9927 9.24755C9.82014 9.92708 10.4312 10.8334 10.751 11.8552C11.0708 12.877 11.0854 13.97 10.793 15H11.5C12.163 15 12.7989 14.7366 13.2678 14.2678C13.7366 13.7989 14 13.163 14 12.5V5.5ZM15 6.93V11.082L17.764 13.432C17.8731 13.5248 18.0065 13.5845 18.1485 13.6039C18.2904 13.6233 18.435 13.6016 18.565 13.5414C18.695 13.4812 18.8051 13.3851 18.8822 13.2643C18.9593 13.1436 19.0001 13.0033 19 12.86V5.193C18.9998 5.05057 18.959 4.91116 18.8824 4.79107C18.8058 4.67098 18.6966 4.57517 18.5676 4.51485C18.4386 4.45454 18.2951 4.43221 18.1538 4.45047C18.0126 4.46874 17.8794 4.52685 17.77 4.618L15 6.93ZM10 13.5C10 14.6935 9.52589 15.8381 8.68198 16.682C7.83807 17.5259 6.69347 18 5.5 18C4.30653 18 3.16193 17.5259 2.31802 16.682C1.47411 15.8381 1 14.6935 1 13.5C1 12.3065 1.47411 11.1619 2.31802 10.318C3.16193 9.47411 4.30653 9 5.5 9C6.69347 9 7.83807 9.47411 8.68198 10.318C9.52589 11.1619 10 12.3065 10 13.5ZM6 11.5C6 11.3674 5.94732 11.2402 5.85355 11.1464C5.75979 11.0527 5.63261 11 5.5 11C5.36739 11 5.24021 11.0527 5.14645 11.1464C5.05268 11.2402 5 11.3674 5 11.5V13H3.5C3.36739 13 3.24021 13.0527 3.14645 13.1464C3.05268 13.2402 3 13.3674 3 13.5C3 13.6326 3.05268 13.7598 3.14645 13.8536C3.24021 13.9473 3.36739 14 3.5 14H5V15.5C5 15.6326 5.05268 15.7598 5.14645 15.8536C5.24021 15.9473 5.36739 16 5.5 16C5.63261 16 5.75979 15.9473 5.85355 15.8536C5.94732 15.7598 6 15.6326 6 15.5V14H7.5C7.63261 14 7.75979 13.9473 7.85355 13.8536C7.94732 13.7598 8 13.6326 8 13.5C8 13.3674 7.94732 13.2402 7.85355 13.1464C7.75979 13.0527 7.63261 13 7.5 13H6V11.5Z" fill="black"/>
</svg>
