<svg width="24" height="24" viewBox="0 0 24 24" fill="none" xmlns="http://www.w3.org/2000/svg">
<path d="M16.746 9.94462V6.68287C16.746 6.54637 16.6714 6.43163 16.566 6.36038L20.25 0.75H13.1865L12 2.52975L10.8135 0.75H3.75L7.43325 6.36C7.32788 6.43125 7.25325 6.54637 7.25325 6.68287V9.94462C5.57287 11.3201 4.5 13.4093 4.5 15.75C4.5 19.8919 7.85812 23.25 12 23.25C12.2557 23.25 12.5078 23.2369 12.7568 23.2118C16.5431 22.8326 19.5 19.6369 19.5 15.75C19.5 13.4093 18.4264 11.3201 16.746 9.94462ZM15.3097 1.125H17.6827L14.373 6.08963L13.1865 4.30988L15.3097 1.125ZM15.5595 7.86938L15.9244 7.32263C15.9443 7.3695 15.9551 7.4205 15.9551 7.47412V9.05625C15.9548 9.10519 15.9448 9.15357 15.9256 9.19862C15.9065 9.24367 15.8787 9.2845 15.8438 9.31875C14.7188 8.6445 13.407 8.25 12 8.25C10.6451 8.25022 9.31597 8.61985 8.1555 9.31913C8.08517 9.24961 8.04514 9.15513 8.04413 9.05625V7.47412C8.04413 7.4205 8.05575 7.36913 8.07488 7.32263L8.43975 7.86975L15.5595 7.86938ZM6.31725 1.125H8.69025L12.9368 7.49438H10.5638L6.31725 1.125ZM12 22.125C8.47913 22.125 5.625 19.2709 5.625 15.75C5.625 12.2295 8.47913 9.375 12 9.375C15.5201 9.375 18.375 12.2295 18.375 15.75C18.375 19.2709 15.5201 22.125 12 22.125Z" fill="black"/>
<path d="M12.0887 9.95508C8.83896 9.95508 6.20459 12.5936 6.20459 15.8493C6.20459 16.8206 6.44346 17.7337 6.85859 18.5411C6.64263 17.8836 6.53239 17.1961 6.53196 16.5041C6.53196 13.053 9.19784 10.2322 12.5796 9.9802C12.4164 9.965 12.2526 9.95662 12.0887 9.95508ZM14.4501 20.6775C13.8755 21.0625 13.2445 21.3555 12.5796 21.546C13.5082 21.4316 14.3969 21.1005 15.1738 20.5792C17.875 18.7635 18.6081 15.1417 16.8115 12.4882C16.72 12.3532 16.621 12.2265 16.5201 12.1016C18.1802 15.0026 17.314 18.7526 14.4501 20.6775Z" fill="black"/>
<path d="M14.4179 18.4523H11.0039V17.5991C11.004 17.2974 11.1239 17.008 11.3372 16.7946C11.5506 16.5812 11.8399 16.4612 12.1417 16.461C12.4405 16.4611 12.7365 16.4023 13.0126 16.288C13.2888 16.1737 13.5397 16.0061 13.751 15.7948C13.9624 15.5834 14.13 15.3326 14.2444 15.0564C14.3588 14.7803 14.4176 14.4844 14.4175 14.1855C14.4175 13.0766 13.855 11.625 11.8574 11.625C10.5265 11.625 9.58154 12.6356 9.58154 14.1855H11.0039C11.0039 13.6001 11.4453 13.0598 12.0172 13.0598C12.6982 13.0598 12.9952 13.5079 12.9952 13.9012C12.9951 14.2029 12.8752 14.4922 12.6618 14.7055C12.4484 14.9188 12.1591 15.0386 11.8574 15.0386C11.5585 15.0386 11.2625 15.0975 10.9864 15.2119C10.7102 15.3263 10.4593 15.494 10.248 15.7053C10.0367 15.9167 9.86903 16.1677 9.75468 16.4438C9.64032 16.72 9.58149 17.016 9.58154 17.3149V19.8746H14.4175V18.4523H14.4179Z" fill="black"/>
</svg>
