<svg width="24" height="24" viewBox="0 0 24 24" fill="none" xmlns="http://www.w3.org/2000/svg">
<path d="M12.5796 9.9802C12.4164 9.96502 12.2526 9.95664 12.0887 9.95508C8.83821 9.95508 6.20459 12.5936 6.20459 15.8493C6.20459 16.8206 6.44346 17.7337 6.85859 18.5411C6.64213 17.884 6.53163 17.1966 6.53121 16.5048C6.53121 13.053 9.19784 10.2315 12.5796 9.9802ZM14.4501 20.6775C13.8755 21.0623 13.2444 21.3553 12.5796 21.546C13.5082 21.4316 14.3969 21.1005 15.1738 20.5792C17.875 18.7635 18.6081 15.1417 16.8115 12.4875C16.7198 12.3549 16.6226 12.2263 16.5201 12.102C18.1802 15.0018 17.3132 18.7526 14.4501 20.6775Z" fill="black"/>
<path d="M16.746 9.94462V6.68287C16.746 6.54637 16.6714 6.43163 16.566 6.36038L20.25 0.75H13.1865L12 2.52975L10.8135 0.75H3.75L7.43325 6.36C7.32788 6.43125 7.25325 6.54637 7.25325 6.68287V9.94462C5.57287 11.3201 4.5 13.4093 4.5 15.75C4.5 19.8919 7.85812 23.25 12 23.25C12.2557 23.25 12.5078 23.2369 12.7568 23.2118C16.5431 22.8326 19.5 19.6369 19.5 15.75C19.5 13.4093 18.4264 11.3201 16.746 9.94462ZM15.3097 1.125H17.6827L14.373 6.08963L13.1865 4.30988L15.3097 1.125ZM15.5595 7.86938L15.9244 7.32263C15.9443 7.3695 15.9551 7.4205 15.9551 7.47412V9.05625C15.9548 9.10519 15.9448 9.15357 15.9256 9.19862C15.9065 9.24367 15.8787 9.2845 15.8438 9.31875C14.7188 8.6445 13.407 8.25 12 8.25C10.6451 8.25022 9.31597 8.61985 8.1555 9.31913C8.08517 9.24961 8.04514 9.15513 8.04413 9.05625V7.47412C8.04413 7.4205 8.05575 7.36913 8.07488 7.32263L8.43975 7.86975L15.5595 7.86938ZM6.31725 1.125H8.69025L12.9368 7.49438H10.5638L6.31725 1.125ZM12 22.125C8.47913 22.125 5.625 19.2709 5.625 15.75C5.625 12.2295 8.47913 9.375 12 9.375C15.5201 9.375 18.375 12.2295 18.375 15.75C18.375 19.2709 15.5201 22.125 12 22.125Z" fill="black"/>
<path d="M12.8376 18.4526V11.625H11.3961C11.3961 11.7744 11.3667 11.9224 11.3096 12.0605C11.2524 12.1986 11.1686 12.3241 11.0629 12.4298C10.9573 12.5354 10.8318 12.6193 10.6938 12.6765C10.5557 12.7337 10.4077 12.7631 10.2583 12.7631V14.1855C10.3611 14.1855 11.1377 14.127 11.3961 14.0235V18.4526H10.2583V19.875H13.9753V18.4526H12.8376Z" fill="black"/>
</svg>
