<svg width="35" height="35" viewBox="0 0 35 35" fill="none" xmlns="http://www.w3.org/2000/svg">
<path fill-rule="evenodd" clip-rule="evenodd" d="M11.116 7.2845C13.2391 7.10038 15.369 7.00541 17.5 6.99984C19.6933 6.99984 21.8587 7.11417 23.884 7.2845C26.32 7.48984 27.8973 7.62984 29.1013 7.9145C30.198 8.1735 30.8117 8.5165 31.339 9.0555C31.395 9.11384 31.479 9.2025 31.5303 9.2655C31.997 9.80217 32.3003 10.4742 32.4753 11.7435C32.662 13.1038 32.6667 14.8772 32.6667 17.5582C32.6667 20.2065 32.662 21.9565 32.4753 23.2982C32.3027 24.5488 31.9993 25.2138 31.5303 25.7575C31.4677 25.8292 31.4031 25.8993 31.3367 25.9675C30.8 26.5135 30.1933 26.8518 29.1247 27.1038C27.9417 27.3838 26.3993 27.5192 24.0053 27.7198C21.9777 27.8878 19.7773 27.9998 17.5 27.9998C15.2227 27.9998 13.02 27.8878 10.9947 27.7198C8.60067 27.5192 7.05833 27.3838 5.87533 27.1038C4.80433 26.8518 4.19767 26.5135 3.66333 25.9675C3.59693 25.8992 3.53235 25.8292 3.46967 25.7575C3.003 25.2138 2.69967 24.5488 2.52467 23.2982C2.338 21.9565 2.33333 20.2065 2.33333 17.5582C2.33333 14.8772 2.338 13.1015 2.52467 11.7435C2.69967 10.4742 3.003 9.80217 3.46967 9.2655C3.52333 9.2025 3.605 9.11384 3.661 9.0555C4.18833 8.5165 4.802 8.1735 5.89867 7.9145C7.105 7.62984 8.68 7.48984 11.116 7.2845ZM0 17.5582C0 12.3268 0 9.71117 1.70333 7.7395C1.78733 7.6415 1.90167 7.51784 1.99267 7.4245C3.81267 5.56017 6.18333 5.3595 10.92 4.9605C12.9967 4.78317 15.2297 4.6665 17.5 4.6665C19.7703 4.6665 22.0033 4.78317 24.08 4.9605C28.8167 5.3595 31.1873 5.56017 33.0073 7.4245C33.0983 7.51784 33.2103 7.6415 33.2967 7.7395C35 9.71117 35 12.3268 35 17.5582C35 22.7265 35 25.3118 33.2943 27.2835C33.2001 27.3912 33.1028 27.4963 33.0027 27.5985C31.1803 29.4628 28.854 29.6565 24.199 30.0438C22.12 30.2188 19.852 30.3332 17.5 30.3332C15.148 30.3332 12.88 30.2165 10.8033 30.0438C6.146 29.6565 3.81967 29.4605 1.99733 27.5985C1.89722 27.4962 1.79996 27.3912 1.70567 27.2835C0 25.3118 0 22.7265 0 17.5582ZM12.25 12.5602C12.2497 12.4631 12.2735 12.3676 12.3195 12.2821C12.3654 12.1966 12.4319 12.1239 12.513 12.0706C12.5941 12.0174 12.6872 11.9851 12.7838 11.9769C12.8805 11.9687 12.9777 11.9847 13.0667 12.0235L24.332 16.9655C24.7987 17.1708 24.7987 17.8288 24.332 18.0342L13.0667 22.9738C12.9779 23.0126 12.8809 23.0286 12.7844 23.0205C12.6879 23.0124 12.595 22.9804 12.514 22.9273C12.4329 22.8743 12.3664 22.802 12.3203 22.7168C12.2742 22.6316 12.25 22.5363 12.25 22.4395V12.5602Z" fill="black"/>
</svg>
