<svg width="24" height="24" viewBox="0 0 24 24" fill="none" xmlns="http://www.w3.org/2000/svg">
<path d="M19 16V19M19 19V22M19 19H22M19 19H16" stroke="#454545" stroke-width="2" stroke-linecap="round" stroke-linejoin="round"/>
<path fill-rule="evenodd" clip-rule="evenodd" d="M6 2H12V8C12 8.79565 12.3161 9.55871 12.8787 10.1213C13.4413 10.6839 14.2044 11 15 11H21V13.341C19.8432 12.9314 18.5887 12.8864 17.4055 13.2119C16.2224 13.5375 15.1675 14.218 14.3831 15.1617C13.5987 16.1055 13.1226 17.267 13.0189 18.4897C12.9151 19.7125 13.1888 20.9376 13.803 22H6C5.20435 22 4.44129 21.6839 3.87868 21.1213C3.31607 20.5587 3 19.7956 3 19V5C3 4.20435 3.31607 3.44129 3.87868 2.87868C4.44129 2.31607 5.20435 2 6 2ZM21 8.828V9H15C14.7348 9 14.4804 8.89464 14.2929 8.70711C14.1054 8.51957 14 8.26522 14 8V2H14.172C14.9672 2.00044 15.7298 2.3166 16.292 2.879L20.122 6.707C20.6843 7.26964 21.0001 8.03256 21 8.828Z" fill="#454545"/>
</svg>
