<svg width="20" height="25" viewBox="0 0 20 25" fill="none" xmlns="http://www.w3.org/2000/svg">
<g clip-path="url(#clip0_559_1338)">
<path d="M13.0769 4.61538C14.3514 4.61538 15.3846 3.58221 15.3846 2.30769C15.3846 1.03317 14.3514 0 13.0769 0C11.8024 0 10.7692 1.03317 10.7692 2.30769C10.7692 3.58221 11.8024 4.61538 13.0769 4.61538ZM5.46587 15.263L4.75433 16.9226H1.53846C0.688942 16.9226 0 17.6115 0 18.4611C0 19.3106 0.688942 19.9995 1.53846 19.9995H5.26202C6.1875 19.9995 7.02067 19.4495 7.38269 18.601L7.80529 17.6144L7.29231 17.3115C6.45962 16.8197 5.84712 16.0918 5.46587 15.263ZM18.4615 10.7688H16.3447L15.0918 8.20865C14.4909 6.98029 13.3875 6.08221 12.1216 5.75962L8.70433 4.74327C7.34375 4.41635 5.92692 4.71683 4.81779 5.56731L2.91058 7.02933C2.23606 7.54615 2.10817 8.51154 2.62596 9.18606C3.14375 9.86058 4.10865 9.98702 4.78269 9.47067L6.69087 8.00865C7.05962 7.72548 7.52933 7.62404 7.90577 7.71346L8.6125 7.92356L6.81154 12.125C6.20481 13.5423 6.74856 15.2024 8.07596 15.9861L12.1615 18.3981L10.8409 22.6159C10.587 23.4264 11.0385 24.2894 11.849 24.5433C12.0024 24.5913 12.1572 24.6144 12.3096 24.6144C12.9639 24.6144 13.5707 24.1928 13.7769 23.5351L15.2981 18.6764C15.5822 17.6779 15.1591 16.6053 14.2577 16.0615L11.3135 14.324L12.8188 10.5606L13.7933 12.5524C14.1779 13.338 14.9913 13.8452 15.8659 13.8452H18.4615C19.3111 13.8452 20 13.1562 20 12.3067C20 11.4572 19.3111 10.7688 18.4615 10.7688Z" fill="#FFFFFF"/>
</g>
<defs>
<clipPath id="clip0_559_1338">
<rect width="20" height="24.6154" fill="white"/>
</clipPath>
</defs>
</svg>
