<svg width="40" height="50" viewBox="0 0 40 50" fill="none" xmlns="http://www.w3.org/2000/svg">
<g clip-path="url(#clip0_828_2614)">
<path d="M26.1453 9.375C28.6935 9.375 30.7592 7.27637 30.7592 4.6875C30.7592 2.09863 28.6935 0 26.1453 0C23.5971 0 21.5314 2.09863 21.5314 4.6875C21.5314 7.27637 23.5971 9.375 26.1453 9.375ZM10.9282 31.0029L9.50554 34.374H3.07592C1.37743 34.374 0 35.7734 0 37.499C0 39.2246 1.37743 40.624 3.07592 40.624H10.5206C12.371 40.624 14.0368 39.5068 14.7606 37.7832L15.6055 35.7793L14.5798 35.1641C12.915 34.165 11.6904 32.6865 10.9282 31.0029ZM36.911 21.874H32.6787L30.1738 16.6738C28.9722 14.1787 26.7662 12.3545 24.2353 11.6992L17.403 9.63477C14.6827 8.9707 11.85 9.58106 9.63242 11.3086L5.81925 14.2783C4.47065 15.3281 4.21497 17.2891 5.2502 18.6592C6.28544 20.0293 8.21462 20.2861 9.56225 19.2373L13.3774 16.2676C14.1146 15.6924 15.0537 15.4863 15.8064 15.668L17.2194 16.0947L13.6186 24.6289C12.4056 27.5078 13.4927 30.8799 16.1466 32.4717L24.3151 37.3711L21.6746 45.9385C21.1671 47.585 22.0697 49.3379 23.6903 49.8535C23.997 49.9512 24.3065 49.9981 24.6112 49.9981C25.9194 49.9981 27.1325 49.1416 27.5448 47.8057L30.5861 37.9365C31.1542 35.9082 30.3083 33.7295 28.5061 32.625L22.6195 29.0957L25.6291 21.4512L27.5775 25.4971C28.3465 27.0928 29.9729 28.1231 31.7213 28.1231H36.911C38.6095 28.1231 39.9869 26.7236 39.9869 24.998C39.9869 23.2725 38.6095 21.874 36.911 21.874Z" fill="#25272C"/>
</g>
<defs>
<clipPath id="clip0_828_2614">
<rect width="39.9869" height="50" fill="white"/>
</clipPath>
</defs>
</svg>
