<svg width="31" height="22" viewBox="0 0 31 22" fill="none" xmlns="http://www.w3.org/2000/svg">
<path d="M9.5 11C12.4016 11 14.75 8.65156 14.75 5.75C14.75 2.84844 12.4016 0.5 9.5 0.5C6.59844 0.5 4.25 2.84844 4.25 5.75C4.25 8.65156 6.59844 11 9.5 11ZM13.1 12.5H12.7109C11.7359 12.9688 10.6531 13.25 9.5 13.25C8.34688 13.25 7.26875 12.9688 6.28906 12.5H5.9C2.91875 12.5 0.5 14.9188 0.5 17.9V19.25C0.5 20.4922 1.50781 21.5 2.75 21.5H16.25C17.4922 21.5 18.5 20.4922 18.5 19.25V17.9C18.5 14.9188 16.0812 12.5 13.1 12.5ZM23 11C25.4844 11 27.5 8.98438 27.5 6.5C27.5 4.01562 25.4844 2 23 2C20.5156 2 18.5 4.01562 18.5 6.5C18.5 8.98438 20.5156 11 23 11ZM25.25 12.5H25.0719C24.4203 12.725 23.7313 12.875 23 12.875C22.2687 12.875 21.5797 12.725 20.9281 12.5H20.75C19.7938 12.5 18.9125 12.7766 18.1391 13.2219C19.2828 14.4547 20 16.0906 20 17.9V19.7C20 19.8031 19.9766 19.9016 19.9719 20H28.25C29.4922 20 30.5 18.9922 30.5 17.75C30.5 14.8484 28.1516 12.5 25.25 12.5Z" fill="#8E95A2"/>
</svg>
