<svg xmlns="http://www.w3.org/2000/svg" width="25" height="22" viewBox="0 0 25 22" fill="none">
  <path d="M7.25 14.5H9V9.83333H7.25V11.2917H5.5V13.0417H7.25V14.5ZM10.1667 13.0417H19.5V11.2917H10.1667V13.0417ZM16 9.83333H17.75V8.375H19.5V6.625H17.75V5.16667H16V9.83333ZM5.5 8.375H14.8333V6.625H5.5V8.375ZM7.83333 21.5V19.1667H3.16666C2.525 19.1667 1.9755 18.938 1.51816 18.4807C1.06083 18.0233 0.832552 17.4742 0.83333 16.8333V2.83333C0.83333 2.19167 1.062 1.64217 1.51933 1.18484C1.97666 0.727502 2.52577 0.499224 3.16666 0.500002H21.8333C22.475 0.500002 23.0245 0.728669 23.4818 1.186C23.9392 1.64334 24.1674 2.19245 24.1667 2.83333V16.8333C24.1667 17.475 23.938 18.0245 23.4807 18.4818C23.0233 18.9392 22.4742 19.1674 21.8333 19.1667H17.1667V21.5H7.83333ZM3.16666 16.8333H21.8333V2.83333H3.16666V16.8333Z" fill="white"/>
</svg>