<svg width="24" height="28" viewBox="0 0 24 28" fill="none" xmlns="http://www.w3.org/2000/svg">
<path d="M21.3333 24.6667H2.66667V10.0001H21.3333M17.3333 0.666748V3.33341H6.66667V0.666748H4V3.33341H2.66667C1.2 3.33341 0 4.53341 0 6.00008V24.6667C0 25.374 0.280951 26.0523 0.781048 26.5524C1.28115 27.0525 1.95942 27.3334 2.66667 27.3334H21.3333C22.8133 27.3334 24 26.1467 24 24.6667V6.00008C24 5.29284 23.719 4.61456 23.219 4.11446C22.7189 3.61437 22.0406 3.33341 21.3333 3.33341H20V0.666748M10.5067 15.3334H5.69333L9.58667 18.1467L8.10667 22.7467L12 19.9067L15.8933 22.7467L14.4 18.1601L18.2933 15.3334H13.4933L12 10.7467L10.5067 15.3334Z" fill="#8E95A2"/>
</svg>
